{"title":"The.Glades.S03E02.720p.WEB.DL.DD5.1.H.264.KiNGS.mkv","uid":7347756,"size":1467271549,"categoryP":"video","categoryS":"hd___tv_shows","magnet":"?xt=urn:btih:cd415d5133d66069be2ae4fadec24e093169e887&amp;dn=The.Glades.S03E02.720p.WEB.DL.DD5.1.H.264.KiNGS.mkv&amp;tr=udp%3A%2F%2Ftracker.openbittorrent.com%3A80&amp;tr=udp%3A%2F%2Fopen.demonii.com%3A1337&amp;tr=udp%3A%2F%2Ftracker.coppersurfer.tk%3A6969&amp;tr=udp%3A%2F%2Fexodus.desync.com%3A6969","seeders":0,"leechers":0,"uploader":null,"files":1,"time":1339487149,"description":"The.Glades.S03E02.720p.WEB.DL.DD5.1.H.264.KiNGS.mkv\n      Format : Matroska\n      File size : 1.37 GiB\n      Duration : 43mn 6s\n      Overall bit rate : 4 538 Kbps\n      Movie name : The.Glades.S03E02.720p.WEB.DL.DD5.1.H.264.KiNGS.mkv 17718\n      Encoded date : UTC 2012-06-11 22:02:38\n      Writing application : mkvmerge v5.6.0 ('Kenya Kane') built on May 27 2012 16:44:04\n      Writing library : libebml v1.2.3 + libmatroska v1.3.0\n   Video #1\n      ID : 1\n      Format : AVC\n      Format/Info : Advanced Video Codec\n      Format profile : &lt;a class=&quot;__cf_email__&quot; href=&quot;/cdn-cgi/l/email-protection&quot; data-cfemail=&quot;2f674648476f631c011e&quot;&gt;[email&amp;#160;protected]&lt;/a&gt;&lt;script cf-hash='f9e31' type=&quot;text/javascript&quot;&gt;\n/* &lt;![CDATA[ */!function(){try{var t=&quot;currentScript&quot;in document?document.currentScript:function(){for(var t=document.getElementsByTagName(&quot;script&quot;),e=t.length;e--;)if(t[e].getAttribute(&quot;cf-hash&quot;))return t[e]}();if(t&amp;&amp;t.previousSibling){var e,r,n,i,c=t.previousSibling,a=c.getAttribute(&quot;data-cfemail&quot;);if(a){for(e=&quot;&quot;,r=parseInt(a.substr(0,2),16),n=2;a.length-n;n+=2)i=parseInt(a.substr(n,2),16)^r,e+=String.fromCharCode(i);e=document.createTextNode(e),c.parentNode.replaceChild(e,c)}}}catch(u){}}();/* ]]&gt; */&lt;/script&gt;\n      Format settings, CABAC : No\n      Format settings, ReFrames : 2 frames\n      Format settings, GOP : M=2, N=25\n      Codec ID : V_MPEG4/ISO/AVC\n      Duration : 43mn 6s\n      Bit rate : 4 064 Kbps\n      Width : 1 280 pixels\n      Height : 720 pixels\n      Display aspect ratio : 16:9\n      Frame rate : 23.976 fps\n      Color space : YUV\n      Chroma subsampling : 4:2:0\n      Bit depth : 8 bits\n      Scan type : Progressive\n      Bits/(Pixel*Frame) : 0.184\n      Stream size : 1.22 GiB (90%)\n      Language : English\n      Color primaries : BT.709-5, BT.1361, IEC 61966-2-4, SMPTE RP177\n      Transfer characteristics : BT.709-5, BT.1361\n      Matrix coefficients : BT.709-5, BT.1361, IEC 61966-2-4 709, SMPTE RP177\n   Audio #2\n      ID : 2\n      Format : AC-3\n      Format/Info : Audio Coding 3\n      Mode extension : CM (complete main)\n      Codec ID : A_AC3\n      Duration : 43mn 6s\n      Bit rate mode : Constant\n      Bit rate : 384 Kbps\n      Channel(s) : 6 channels\n      Channel positions : Front: L C R, Side: L R, LFE\n      Sampling rate : 48.0 KHz\n      Bit depth : 16 bits\n      Compression mode : Lossy\n      Stream size : 118 MiB (8%)\n      Language : English","torrent":{"xt":"urn:btih:cd415d5133d66069be2ae4fadec24e093169e887","amp;dn":"The.Glades.S03E02.720p.WEB.DL.DD5.1.H.264.KiNGS.mkv","amp;tr":["udp%3A%2F%2Ftracker.openbittorrent.com%3A80","udp%3A%2F%2Fopen.demonii.com%3A1337","udp%3A%2F%2Ftracker.coppersurfer.tk%3A6969","udp%3A%2F%2Fexodus.desync.com%3A6969"],"infoHash":"cd415d5133d66069be2ae4fadec24e093169e887","infoHashBuffer":{"type":"Buffer","data":[205,65,93,81,51,214,96,105,190,42,228,250,222,194,78,9,49,105,232,135]},"announce":[],"urlList":[]}}